<svg xmlns="http://www.w3.org/2000/svg" xmlns:android="http://schemas.android.com/apk/res/android" width="108.5dp" height="36.41dp" viewportWidth="108.5" viewportHeight="36.41">
	<path d="M84.63,26.74a0.81,0.81 0,1 1,-0.81 0.81A0.81,0.81 0,0 1,84.63 26.74ZM84.63,29.04a0.34,0.34 0,1 1,-0.34 0.34A0.34,0.34 0,0 1,84.63 29.05ZM83.72,30.1v2.79a5.38,5.38 0,0 1,-2.21 -0.92l1.97,-1.97C83.56,30.04 83.64,30.07 83.72,30.1ZM82.19,28.71 L80.22,30.68a5.38,5.38 0,0 1,-0.92 -2.21L82.09,28.47Q82.13,28.59 82.19,28.71ZM82.19,26.4q-0.06,0.12 -0.1,0.25h-2.79a5.38,5.38 0,0 1,0.92 -2.21ZM85.79,25.11c-0.08,-0.04 -0.16,-0.07 -0.25,-0.1L85.54,22.22a5.38,5.38 0,0 1,2.21 0.92ZM84.63,18.7a8.86,8.86 0,1 1,-8.86 8.86A8.86,8.86 0,0 1,84.63 18.7ZM84.63,33.88a6.33,6.33 0,1 0,-6.33 -6.33A6.33,6.33 0,0 0,84.63 33.88ZM84.63,26.06a0.34,0.34 0,1 1,0.34 -0.34A0.34,0.34 0,0 1,84.63 26.07ZM81.51,23.14a5.38,5.38 0,0 1,2.21 -0.92v2.79a2.64,2.64 0,0 0,-0.25 0.1ZM87.08,26.4 L89.05,24.43a5.38,5.38 0,0 1,0.92 2.21h-2.79A2.64,2.64 0,0 0,87.08 26.4ZM87.76,31.97a5.38,5.38 0,0 1,-2.21 0.92v-2.79q0.13,-0.05 0.25,-0.1ZM87.18,28.47h2.79a5.38,5.38 0,0 1,-0.92 2.21l-1.97,-1.97C87.12,28.63 87.15,28.55 87.18,28.47ZM86.12,27.56a0.34,0.34 0,1 1,0.34 0.34A0.34,0.34 0,0 1,86.13 27.56ZM83.14,27.56a0.34,0.34 0,1 1,-0.34 -0.34A0.34,0.34 0,0 1,83.14 27.56ZM15.99,26.74a0.81,0.81 0,1 1,-0.81 0.81A0.81,0.81 0,0 1,15.99 26.74ZM17.15,25.11c-0.08,-0.04 -0.16,-0.07 -0.25,-0.1L16.9,22.22a5.38,5.38 0,0 1,2.21 0.92ZM15.99,29.05a0.34,0.34 0,1 1,-0.34 0.34A0.34,0.34 0,0 1,15.99 29.05ZM15.08,30.1v2.79a5.38,5.38 0,0 1,-2.21 -0.92l1.97,-1.97C14.92,30.04 15,30.07 15.08,30.1ZM13.44,28.47q0.05,0.13 0.1,0.25l-1.97,1.97a5.38,5.38 0,0 1,-0.92 -2.21ZM0.58,17.25c1.2,-1.84 4.28,-2.48 6.63,-3.25 16.37,-3.95 21.82,-2.67 24.55,-3.05a6.15,6.15 0,0 0,1.49 -0.91c0.99,-0.62 2.01,-1.16 2.99,-1.75 1.61,-0.99 9.03,-5.05 11.04,-5.78 4.41,-1.61 11.38,-2.9 28.19,-1.56 0.68,-0.19 1.09,-0.74 1.82,-0.91a3.87,3.87 0,0 1,1.88 0.32,6.26 6.26,0 0,0 0.13,1.43c3.28,1.38 6.61,2.45 9.87,3.83 1.36,0.58 2.77,1.14 4.16,1.75A27.28,27.28 0,0 0,95.99 8.62c1.06,0.34 2.21,0.19 3.38,0.46a32.6,32.6 0,0 0,6.76 0.58,5.13 5.13,0 0,1 0.84,1.49c-0.41,0.13 -0.54,0.4 -0.52,0.97 0.72,1.06 0.52,2.57 0.52,4.29 1.53,0.78 1.76,3.64 1.36,5.91l0.13,0.58c-0.08,0.64 -0.29,1.32 -0.32,2.01a6.97,6.97 0,0 0,-1.62 1.56c-0.2,0.27 -0.29,0.74 -0.65,0.84 -1.92,1.4 -11.63,1.69 -11.63,1.69l-0.51,0.03a9.21,9.21 0,1 0,-18.3 -1.48,13.83 13.83,0 0,0 0.34,3.03l-51.03,-0.09a9.21,9.21 0,1 0,-17.58 -0.37l-0.52,-0.01s-4.02,-0.19 -5,-0.65a3.09,3.09 0,0 1,-1.36 -1.75l0.26,-2.73S-0.69,19.2 0.58,17.25ZM82.09,10.57c3.05,-2.03 1.43,-4.4 1.52,-4.39 0.05,0.04 0.08,0.08 0.11,0.1a0.54,0.54 0,0 0,-0.11 -0.1c-0.79,-0.7 -5.28,-3.84 -21.2,-3.86 -0.5,2.79 -1,6.46 -1.49,9.25C67.32,11.38 79.93,11.48 82.09,10.57ZM41.05,11.6 L56.37,11.6s2.25,-5.93 3.05,-9.22c-0.09,0.01 -2.86,0.13 -2.86,0.13a56.07,56.07 0,0 0,-8.9 1.75,39.76 39.76,0 0,0 -8.12,4.68C41.15,9.02 41.53,10.29 41.05,11.6ZM15.99,18.7a8.86,8.86 0,1 1,-8.86 8.86A8.86,8.86 0,0 1,15.99 18.7ZM15.99,33.89a6.33,6.33 0,1 0,-6.33 -6.33A6.33,6.33 0,0 0,15.99 33.88ZM18.44,26.4 L20.41,24.43a5.38,5.38 0,0 1,0.92 2.21L18.54,26.65Q18.49,26.52 18.44,26.4ZM17.48,27.56a0.34,0.34 0,1 1,0.34 0.34A0.34,0.34 0,0 1,17.48 27.56ZM15.99,26.07a0.34,0.34 0,1 1,0.34 -0.34A0.34,0.34 0,0 1,15.99 26.07ZM12.86,23.14a5.38,5.38 0,0 1,2.21 -0.92v2.79a2.64,2.64 0,0 0,-0.25 0.1ZM14.5,27.56a0.34,0.34 0,1 1,-0.34 -0.34A0.34,0.34 0,0 1,14.5 27.56ZM19.12,31.97a5.38,5.38 0,0 1,-2.21 0.92v-2.79a2.64,2.64 0,0 0,0.25 -0.1ZM18.54,28.47h2.79a5.38,5.38 0,0 1,-0.92 2.21l-1.97,-1.97A2.64,2.64 0,0 0,18.54 28.47ZM13.44,26.65L10.66,26.65a5.38,5.38 0,0 1,0.92 -2.21l1.97,1.97C13.51,26.48 13.48,26.56 13.45,26.64Z" fill="#CECECE"/>
</svg>
