<svg xmlns="http://www.w3.org/2000/svg" width="55.28" height="36.233" viewBox="0 0 55.28 36.233">
  <path id="_2_whe_ins" data-name="2 whe ins" d="M55.212,33.089a18.05,18.05,0,0,0-.69-2.933H44.86a1.725,1.725,0,1,1,0-3.451h8.109a16.767,16.767,0,0,0-4.659-5.176A1.7,1.7,0,0,0,49.864,19.8a6.922,6.922,0,0,0-6.9-6.9h-6.9a6.922,6.922,0,0,0-6.9,6.9,1.63,1.63,0,0,0,1.725,1.725V26.7H21.05a2.284,2.284,0,0,1-2.243-2.243V12.9h1.725a1.63,1.63,0,0,0,1.725-1.725,1.63,1.63,0,0,0-1.725-1.725H16.909A5.026,5.026,0,0,0,12.078,6H8.627A1.63,1.63,0,0,0,6.9,7.725v6.9a1.63,1.63,0,0,0,1.725,1.725H12.25L8.627,24.979a8.627,8.627,0,0,0,0,17.254,8.678,8.678,0,0,0,8.454-6.9h17.6a8.629,8.629,0,0,0,16.909,0h1.9a1.959,1.959,0,0,0,1.38-.518,1.342,1.342,0,0,0,.345-1.38ZM8.627,38.782a5.084,5.084,0,0,1-5.176-5.176,5.177,5.177,0,0,1,3.8-5,5.148,5.148,0,0,0,.518,4.486,5.4,5.4,0,0,0,4.313,2.243h1.38A5.026,5.026,0,0,1,8.627,38.782Zm34.508,0A5.026,5.026,0,0,1,38.3,35.332h9.662A5.026,5.026,0,0,1,43.135,38.782Z" transform="translate(0 -6)" fill="#cecece"/>
</svg>
