<svg xmlns="http://www.w3.org/2000/svg" xmlns:android="http://schemas.android.com/apk/res/android" width="55.28dp" height="36.233dp" viewportWidth="55.28" viewportHeight="36.233">
	<path d="M55.212,27.089a18.05,18.05 0,0 0,-0.69 -2.933L44.86,24.156a1.725,1.725 0,1 1,0 -3.451h8.109a16.767,16.767 0,0 0,-4.659 -5.176A1.7,1.7 0,0 0,49.864 13.8a6.922,6.922 0,0 0,-6.9 -6.9h-6.9a6.922,6.922 0,0 0,-6.9 6.9,1.63 1.63,0 0,0 1.725,1.725L30.889,20.7L21.05,20.7a2.284,2.284 0,0 1,-2.243 -2.243L18.807,6.9h1.725a1.63,1.63 0,0 0,1.725 -1.725,1.63 1.63,0 0,0 -1.725,-1.725L16.909,3.45A5.026,5.026 0,0 0,12.078 0L8.627,0A1.63,1.63 0,0 0,6.9 1.725v6.9a1.63,1.63 0,0 0,1.725 1.725L12.25,10.35L8.627,18.979a8.627,8.627 0,0 0,0 17.254,8.678 8.678,0 0,0 8.454,-6.9h17.6a8.629,8.629 0,0 0,16.909 0h1.9a1.959,1.959 0,0 0,1.38 -0.518,1.342 1.342,0 0,0 0.345,-1.38ZM8.627,32.782a5.084,5.084 0,0 1,-5.176 -5.176,5.177 5.177,0 0,1 3.8,-5 5.148,5.148 0,0 0,0.518 4.486,5.4 5.4,0 0,0 4.313,2.243h1.38A5.026,5.026 0,0 1,8.627 32.782ZM43.135,32.782A5.026,5.026 0,0 1,38.3 29.332h9.662A5.026,5.026 0,0 1,43.135 32.782Z" fill="#8bc240"/>
</svg>
