<svg id="car" xmlns="http://www.w3.org/2000/svg" width="108.5" height="36.413" viewBox="0 0 108.5 36.413">
  <g id="Group_1" data-name="Group 1">
    <path id="Path_1" data-name="Path 1" d="M142.045,178.224a.811.811,0,1,1-.811.811A.811.811,0,0,1,142.045,178.224Zm0,2.3a.344.344,0,1,1-.344.344A.344.344,0,0,1,142.045,180.526Zm-.911,1.056v2.786a5.379,5.379,0,0,1-2.214-.918l1.97-1.97C140.969,181.518,141.05,181.552,141.134,181.582Zm-1.534-1.391-1.97,1.97a5.379,5.379,0,0,1-.918-2.214H139.5Q139.544,180.072,139.6,180.191Zm0-2.312q-.056.119-.1.245h-2.786a5.381,5.381,0,0,1,.918-2.214Zm3.6-1.289c-.08-.038-.161-.072-.245-.1V173.7a5.379,5.379,0,0,1,2.214.918Zm-1.156-6.412a8.857,8.857,0,1,1-8.857,8.857A8.857,8.857,0,0,1,142.045,170.178Zm0,15.183a6.326,6.326,0,1,0-6.326-6.326A6.326,6.326,0,0,0,142.045,185.362Zm0-7.818a.344.344,0,1,1,.344-.344A.344.344,0,0,1,142.045,177.544Zm-3.126-2.923a5.379,5.379,0,0,1,2.214-.918v2.786a2.645,2.645,0,0,0-.245.1Zm5.571,3.258,1.97-1.97a5.378,5.378,0,0,1,.918,2.214h-2.786A2.644,2.644,0,0,0,144.49,177.879Zm.681,5.571a5.381,5.381,0,0,1-2.214.918v-2.786q.125-.045.245-.1Zm-.579-3.5h2.786a5.381,5.381,0,0,1-.918,2.214l-1.97-1.97C144.528,180.112,144.562,180.03,144.592,179.946Zm-1.056-.911a.344.344,0,1,1,.344.344A.344.344,0,0,1,143.536,179.035Zm-2.982,0a.344.344,0,1,1-.344-.344A.344.344,0,0,1,140.554,179.035ZM73.4,178.224a.811.811,0,1,1-.811.811A.811.811,0,0,1,73.4,178.224Zm1.156-1.633c-.079-.038-.161-.072-.245-.1V173.7a5.38,5.38,0,0,1,2.214.918ZM73.4,180.526a.344.344,0,1,1-.344.344A.344.344,0,0,1,73.4,180.526Zm-.911,1.056v2.786a5.38,5.38,0,0,1-2.214-.918l1.97-1.97C72.327,181.518,72.408,181.552,72.492,181.582Zm-1.635-1.635q.045.125.1.245l-1.97,1.97a5.379,5.379,0,0,1-.918-2.214ZM57.994,168.734c1.2-1.84,4.28-2.482,6.625-3.247,16.373-3.955,21.818-2.667,24.55-3.053a6.152,6.152,0,0,0,1.494-.909c.988-.616,2.014-1.157,2.988-1.754,1.609-.986,9.034-5.047,11.041-5.78,4.411-1.612,11.384-2.9,28.187-1.559.682-.187,1.094-.738,1.818-.909a3.873,3.873,0,0,1,1.883.325,6.261,6.261,0,0,0,.13,1.429c3.284,1.385,6.607,2.447,9.872,3.832,1.362.578,2.768,1.143,4.157,1.754A27.28,27.28,0,0,0,153.4,160.1c1.058.342,2.214.187,3.377.455a32.6,32.6,0,0,0,6.755.585,5.129,5.129,0,0,1,.844,1.494c-.405.125-.541.4-.52.974.716,1.061.524,2.573.52,4.287,1.526.781,1.758,3.644,1.364,5.91l.13.585c-.082.641-.29,1.318-.325,2.013a6.974,6.974,0,0,0-1.624,1.559c-.2.272-.291.74-.649.844-1.917,1.4-11.626,1.689-11.626,1.689l-.511.028a9.212,9.212,0,1,0-18.3-1.482,13.833,13.833,0,0,0,.335,3.027l-51.032-.09a9.212,9.212,0,1,0-17.581-.367l-.522-.011s-4.02-.194-5-.65a3.09,3.09,0,0,1-1.364-1.754l.26-2.728S56.721,170.682,57.994,168.734Zm81.509-6.689c3.052-2.028,1.435-4.4,1.518-4.389.049.043.084.078.106.1a.542.542,0,0,0-.106-.1c-.786-.7-5.275-3.835-21.2-3.86-.5,2.793-1,6.461-1.494,9.254C124.736,162.855,137.346,162.963,139.5,162.045Zm-41.047,1.038,15.328,0s2.248-5.928,3.052-9.218c-.094.009-2.858.129-2.858.129a56.071,56.071,0,0,0-8.9,1.754,39.755,39.755,0,0,0-8.118,4.676C98.563,160.5,98.942,161.764,98.456,163.083Zm-25.053,7.1a8.857,8.857,0,1,1-8.857,8.857A8.857,8.857,0,0,1,73.4,170.178Zm0,15.183a6.326,6.326,0,1,0-6.326-6.326A6.326,6.326,0,0,0,73.4,185.362Zm2.445-7.483,1.97-1.97a5.38,5.38,0,0,1,.918,2.214H75.949Q75.9,178,75.848,177.879Zm-.954,1.156a.344.344,0,1,1,.344.344A.344.344,0,0,1,74.894,179.035ZM73.4,177.544a.344.344,0,1,1,.344-.344A.344.344,0,0,1,73.4,177.544Zm-3.126-2.923a5.379,5.379,0,0,1,2.214-.918v2.786a2.644,2.644,0,0,0-.245.1Zm1.635,4.414a.344.344,0,1,1-.344-.344A.344.344,0,0,1,71.912,179.035Zm4.617,4.415a5.38,5.38,0,0,1-2.214.918v-2.786a2.638,2.638,0,0,0,.245-.1Zm-.579-3.5h2.786a5.381,5.381,0,0,1-.918,2.214l-1.97-1.97A2.643,2.643,0,0,0,75.95,179.946Zm-5.093-1.823H68.071a5.38,5.38,0,0,1,.918-2.214l1.97,1.97C70.921,177.959,70.886,178.04,70.856,178.124Z" transform="translate(-57.411 -151.479)" fill="#8bc240"/>
  </g>
</svg>
