<svg xmlns="http://www.w3.org/2000/svg" width="30.758" height="35.332" viewBox="0 0 30.758 35.332">
  <path id="Com_Ins" data-name="Com Ins" d="M76.379,32c-5.358,0-9.878.3-10.552.689-1.18.4-2.065,3.078-2.067,6.251v1.577h-.322a.78.78,0,0,0-.129-.2.885.885,0,0,0,.215-.591V38.94a.723.723,0,0,0-.631-.789H61.631A.723.723,0,0,0,61,38.94v.789a.885.885,0,0,0,.215.592.885.885,0,0,0-.215.591v3.943a.723.723,0,0,0,.631.789h1.262a.622.622,0,0,0,.546-.394h.322v7.1c0,.281.3.541.789.682v.921c-.7.09-1.182.4-1.183.763V62.6a4.379,4.379,0,0,0,.789,2.729v1.355a.648.648,0,0,0,.648.648H67.45a.648.648,0,0,0,.648-.648v-.929H84.66v.929a.648.648,0,0,0,.648.648h2.647a.648.648,0,0,0,.648-.648V65.327a4.379,4.379,0,0,0,.789-2.727V54.713c0-.359-.487-.673-1.183-.763v-.921c.487-.141.788-.4.789-.682v-7.1h.322a.622.622,0,0,0,.546.394h1.262a.723.723,0,0,0,.631-.789V40.912a.885.885,0,0,0-.215-.591.885.885,0,0,0,.215-.592V38.94a.723.723,0,0,0-.631-.789H89.865a.723.723,0,0,0-.631.789v.789a.885.885,0,0,0,.215.591.779.779,0,0,0-.129.2H89V38.94c0-3.19-.895-5.876-2.083-6.259C86.193,32.291,81.7,32,76.379,32ZM65.562,36.574H87.195a.789.789,0,0,1,.774.636,13.371,13.371,0,0,1,.24,2.552h0v5.486a.789.789,0,0,1-.789.789H65.338a.789.789,0,0,1-.789-.789V39.763h0a13.378,13.378,0,0,1,.239-2.552.789.789,0,0,1,.774-.636Zm.959,17.35h1.69a.394.394,0,0,1,.394.373l.282,5.126a.394.394,0,0,1-.394.416H66.521a.394.394,0,0,1-.394-.394V54.319A.394.394,0,0,1,66.521,53.925Zm18.026,0h1.69a.394.394,0,0,1,.394.394v5.126a.394.394,0,0,1-.394.394H84.265a.394.394,0,0,1-.394-.416l.282-5.126a.394.394,0,0,1,.394-.373Zm-14.675.946H82.885a.2.2,0,0,1,.2.2V55.3a.2.2,0,0,1-.2.2H69.872a.2.2,0,0,1-.2-.2v-.237a.2.2,0,0,1,.2-.2Zm.079,1.42H82.806a.2.2,0,0,1,.2.2v.237a.2.2,0,0,1-.2.2H69.951a.2.2,0,0,1-.2-.2v-.237a.2.2,0,0,1,.2-.2Zm.079,1.42h12.7a.2.2,0,0,1,.2.2v.237a.2.2,0,0,1-.2.2H70.03a.2.2,0,0,1-.2-.2v-.237a.2.2,0,0,1,.2-.2Zm.079,1.42h12.54a.2.2,0,0,1,.2.2v.237a.2.2,0,0,1-.2.2H70.109a.2.2,0,0,1-.2-.2v-.237a.2.2,0,0,1,.2-.2Z" transform="translate(-61 -32)" fill="#cecece"/>
</svg>
