<svg xmlns="http://www.w3.org/2000/svg" width="28.835" height="34.96" viewBox="0 0 28.835 34.96">
  <g id="Gureanted_Return_plan" data-name="Gureanted Return plan" transform="translate(-7.505 -1.246)">
    <path id="Path_104" data-name="Path 104" d="M25.743,1.246a9.37,9.37,0,1,0,9.37,9.37,9.37,9.37,0,0,0-9.37-9.37Z" transform="translate(-3.697)" fill="#cecece"/>
    <path id="Path_105" data-name="Path 105" d="M11.937,36.736H8.113a.608.608,0,0,0-.608.609v13.05A.608.608,0,0,0,8.113,51h3.824a1.326,1.326,0,0,0,1.326-1.326V38.062a1.326,1.326,0,0,0-1.326-1.326Z" transform="translate(0 -14.797)" fill="#cecece"/>
    <path id="Path_106" data-name="Path 106" d="M41.214,38.649a2.218,2.218,0,0,0-1.857-1h-1.5a3.235,3.235,0,0,0-3,2.007,3.353,3.353,0,0,1-.6.944,4.885,4.885,0,0,1-3.9,2.215H25.926a.787.787,0,1,1,0-1.574h4.417a2.961,2.961,0,0,0,1.589-.511V40.7a3.043,3.043,0,0,0-3.043-3.055H25.633a4.511,4.511,0,0,0-3.205,1.324l-.083.083a4.226,4.226,0,0,1-2.266,1.174v8.694H31.957a9,9,0,0,0,8.274-5.45L41.4,40.75A2.217,2.217,0,0,0,41.214,38.649Z" transform="translate(-5.242 -15.177)" fill="#cecece"/>
    <path id="Path_107" data-name="Path 107" d="M7,35.154a.7.7,0,0,1-.7.7H5.507a3.154,3.154,0,0,1-2.668,2.427L6,40.54a.7.7,0,0,1,.163.978.729.729,0,0,1-.588.295.7.7,0,0,1-.407-.13l-4.906-3.5a.732.732,0,0,1-.241-.785.677.677,0,0,1,.667-.486H2.44a1.754,1.754,0,0,0,1.6-1.051H.688a.7.7,0,0,1,0-1.4H4.043A1.754,1.754,0,0,0,2.44,33.4H.688a.7.7,0,0,1,0-1.4H6.295a.7.7,0,0,1,0,1.4H5.06a3.134,3.134,0,0,1,.448,1.051h.787A.7.7,0,0,1,7,35.154Z" transform="translate(18.554 -26.29)" fill="#fff"/>
  </g>
</svg>
