<svg xmlns="http://www.w3.org/2000/svg" width="35.371" height="35.371" viewBox="0 0 35.371 35.371">
  <g id="health_ins" data-name="health ins" transform="translate(-2 -2)">
    <path id="Path_103" data-name="Path 103" d="M28.911,12.764V9.489L19.686,6.775,10.46,9.489v3.275A1.54,1.54,0,0,1,8.922,14.3H6.859a30.579,30.579,0,0,0,1.432,6.125c2.126,6.044,5.959,10.121,11.393,12.12,4.279-1.587,11.284-6.03,12.831-18.245H30.449a1.54,1.54,0,0,1-1.538-1.538Zm-.764,9.228a.769.769,0,0,1-.769.769H22.764v4.614a.769.769,0,0,1-.769.769H17.381a.769.769,0,0,1-.769-.769V22.761H12a.769.769,0,0,1-.769-.769V17.378A.769.769,0,0,1,12,16.609h4.614V12a.769.769,0,0,1,.769-.769H22a.769.769,0,0,1,.769.769v4.614h4.614a.769.769,0,0,1,.769.769ZM22,18.147h4.614v3.076H22a.769.769,0,0,0-.769.769v4.614H18.15V21.992a.769.769,0,0,0-.769-.769H12.767V18.147h4.614a.769.769,0,0,0,.769-.769V12.764h3.076v4.614a.769.769,0,0,0,.769.769Zm14.937-8a1.531,1.531,0,0,0-1.1-.46H33.525v-2.5a1.546,1.546,0,0,0-1.1-1.475l-12.5-3.678a.8.8,0,0,0-.5.01L6.95,5.713a1.546,1.546,0,0,0-1.1,1.475v2.5H3.539A1.533,1.533,0,0,0,2,11.249c.064,3.485,1.205,21.1,17.413,26.074a.758.758,0,0,0,.269.049h.006a.758.758,0,0,0,.269-.049c16.21-4.969,17.35-22.589,17.413-26.074a1.522,1.522,0,0,0-.439-1.1ZM19.941,34.09a.768.768,0,0,1-.512,0C13.4,31.964,9.161,27.538,6.84,20.938a32.526,32.526,0,0,1-1.609-7.327A.769.769,0,0,1,6,12.764H8.922V9.489a1.547,1.547,0,0,1,1.1-1.476l9.442-2.777a.762.762,0,0,1,.434,0l9.442,2.778a1.546,1.546,0,0,1,1.1,1.475v3.275h2.929a.77.77,0,0,1,.765.848c-.5,4.822-2.873,16.47-14.2,20.478Z" transform="translate(0 0)" fill="#cecece"/>
  </g>
</svg>
