<svg xmlns="http://www.w3.org/2000/svg" xmlns:android="http://schemas.android.com/apk/res/android" width="30.758dp" height="35.332dp" viewportWidth="30.758" viewportHeight="35.332">
	<path d="M15.379,0c-5.358,0 -9.878,0.3 -10.552,0.689 -1.18,0.4 -2.065,3.078 -2.067,6.251v1.577h-0.322a0.78,0.78 0,0 0,-0.129 -0.2,0.885 0.885,0 0,0 0.215,-0.591L2.524,6.94a0.723,0.723 0,0 0,-0.631 -0.789L0.631,6.151A0.723,0.723 0,0 0,0 6.94v0.789a0.885,0.885 0,0 0,0.215 0.592,0.885 0.885,0 0,0 -0.215,0.591v3.943a0.723,0.723 0,0 0,0.631 0.789h1.262a0.622,0.622 0,0 0,0.546 -0.394h0.322v7.1c0,0.281 0.3,0.541 0.789,0.682v0.921c-0.7,0.09 -1.182,0.4 -1.183,0.763L2.367,30.6a4.379,4.379 0,0 0,0.789 2.729v1.355a0.648,0.648 0,0 0,0.648 0.648L6.45,35.332a0.648,0.648 0,0 0,0.648 -0.648v-0.929L23.66,33.755v0.929a0.648,0.648 0,0 0,0.648 0.648h2.647a0.648,0.648 0,0 0,0.648 -0.648L27.603,33.327a4.379,4.379 0,0 0,0.789 -2.727L28.392,22.713c0,-0.359 -0.487,-0.673 -1.183,-0.763v-0.921c0.487,-0.141 0.788,-0.4 0.789,-0.682v-7.1h0.322a0.622,0.622 0,0 0,0.546 0.394h1.262a0.723,0.723 0,0 0,0.631 -0.789L30.759,8.912a0.885,0.885 0,0 0,-0.215 -0.591,0.885 0.885,0 0,0 0.215,-0.592L30.759,6.94a0.723,0.723 0,0 0,-0.631 -0.789L28.865,6.151a0.723,0.723 0,0 0,-0.631 0.789v0.789a0.885,0.885 0,0 0,0.215 0.591,0.779 0.779,0 0,0 -0.129,0.2L28,8.52L28,6.94c0,-3.19 -0.895,-5.876 -2.083,-6.259C25.193,0.291 20.7,0 15.379,0ZM4.562,4.574L26.195,4.574a0.789,0.789 0,0 1,0.774 0.636,13.371 13.371,0 0,1 0.24,2.552h0v5.486a0.789,0.789 0,0 1,-0.789 0.789L4.338,14.037a0.789,0.789 0,0 1,-0.789 -0.789L3.549,7.763h0a13.378,13.378 0,0 1,0.239 -2.552,0.789 0.789,0 0,1 0.774,-0.636ZM5.521,21.924h1.69a0.394,0.394 0,0 1,0.394 0.373l0.282,5.126a0.394,0.394 0,0 1,-0.394 0.416L5.521,27.839a0.394,0.394 0,0 1,-0.394 -0.394L5.127,22.319A0.394,0.394 0,0 1,5.521 21.925ZM23.547,21.924h1.69a0.394,0.394 0,0 1,0.394 0.394v5.126a0.394,0.394 0,0 1,-0.394 0.394L23.265,27.838a0.394,0.394 0,0 1,-0.394 -0.416l0.282,-5.126a0.394,0.394 0,0 1,0.394 -0.373ZM8.872,22.87L21.885,22.87a0.2,0.2 0,0 1,0.2 0.2L22.085,23.3a0.2,0.2 0,0 1,-0.2 0.2L8.872,23.5a0.2,0.2 0,0 1,-0.2 -0.2v-0.237a0.2,0.2 0,0 1,0.2 -0.2ZM8.951,24.29L21.806,24.29a0.2,0.2 0,0 1,0.2 0.2v0.237a0.2,0.2 0,0 1,-0.2 0.2L8.951,24.927a0.2,0.2 0,0 1,-0.2 -0.2v-0.237a0.2,0.2 0,0 1,0.2 -0.2ZM9.03,25.71h12.7a0.2,0.2 0,0 1,0.2 0.2v0.237a0.2,0.2 0,0 1,-0.2 0.2L9.03,26.347a0.2,0.2 0,0 1,-0.2 -0.2v-0.237a0.2,0.2 0,0 1,0.2 -0.2ZM9.109,27.13h12.54a0.2,0.2 0,0 1,0.2 0.2v0.237a0.2,0.2 0,0 1,-0.2 0.2L9.109,27.767a0.2,0.2 0,0 1,-0.2 -0.2v-0.237a0.2,0.2 0,0 1,0.2 -0.2Z" fill="#d2a341"/>
</svg>
