<svg xmlns="http://www.w3.org/2000/svg" xmlns:android="http://schemas.android.com/apk/res/android" width="28.835dp" height="34.96dp" viewportWidth="28.835" viewportHeight="34.96">
	<path d="M14.541,0a9.37,9.37 0,1 0,9.37 9.37,9.37 9.37,0 0,0 -9.37,-9.37Z" fill="#8bc240"/>
	<path d="M4.432,20.693L0.608,20.693a0.608,0.608 0,0 0,-0.608 0.609v13.05A0.608,0.608 0,0 0,0.608 34.957h3.824a1.326,1.326 0,0 0,1.326 -1.326L5.758,22.019a1.326,1.326 0,0 0,-1.326 -1.326Z" fill="#8bc240"/>
	<path d="M28.467,22.226a2.218,2.218 0,0 0,-1.857 -1h-1.5a3.235,3.235 0,0 0,-3 2.007,3.353 3.353,0 0,1 -0.6,0.944 4.885,4.885 0,0 1,-3.9 2.215L13.179,26.392a0.787,0.787 0,1 1,0 -1.574h4.417a2.961,2.961 0,0 0,1.589 -0.511L19.185,24.277a3.043,3.043 0,0 0,-3.043 -3.055L12.886,21.222a4.511,4.511 0,0 0,-3.205 1.324l-0.083,0.083a4.226,4.226 0,0 1,-2.266 1.174v8.694L19.21,32.497a9,9 0,0 0,8.274 -5.45L28.653,24.327A2.217,2.217 0,0 0,28.467 22.226Z" fill="#8bc240"/>
	<path d="M18.049,7.618a0.7,0.7 0,0 1,-0.7 0.7L16.556,8.318a3.154,3.154 0,0 1,-2.668 2.427L17.049,13.004a0.7,0.7 0,0 1,0.163 0.978,0.729 0.729,0 0,1 -0.588,0.295 0.7,0.7 0,0 1,-0.407 -0.13l-4.906,-3.5a0.732,0.732 0,0 1,-0.241 -0.785,0.677 0.677,0 0,1 0.667,-0.486L13.489,9.376a1.754,1.754 0,0 0,1.6 -1.051L11.737,8.325a0.7,0.7 0,0 1,0 -1.4L15.092,6.925A1.754,1.754 0,0 0,13.489 5.864L11.737,5.864a0.7,0.7 0,0 1,0 -1.4L17.344,4.464a0.7,0.7 0,0 1,0 1.4L16.109,5.864a3.134,3.134 0,0 1,0.448 1.051h0.787A0.7,0.7 0,0 1,18.049 7.618Z" fill="#cecece"/>
</svg>
