<svg xmlns="http://www.w3.org/2000/svg" xmlns:android="http://schemas.android.com/apk/res/android" width="35.371dp" height="35.371dp" viewportWidth="35.371" viewportHeight="35.371">
	<path d="M26.911,10.764L26.911,7.489L17.686,4.775 8.46,7.489v3.275A1.54,1.54 0,0 1,6.922 12.3L4.859,12.3a30.579,30.579 0,0 0,1.432 6.125c2.126,6.044 5.959,10.121 11.393,12.12 4.279,-1.587 11.284,-6.03 12.831,-18.245L28.449,12.3a1.54,1.54 0,0 1,-1.538 -1.538ZM26.147,19.992a0.769,0.769 0,0 1,-0.769 0.769L20.764,20.761v4.614a0.769,0.769 0,0 1,-0.769 0.769L15.381,26.144a0.769,0.769 0,0 1,-0.769 -0.769L14.612,20.761L10,20.761a0.769,0.769 0,0 1,-0.769 -0.769L9.231,15.378A0.769,0.769 0,0 1,10 14.609h4.614L14.614,10a0.769,0.769 0,0 1,0.769 -0.769L20,9.231a0.769,0.769 0,0 1,0.769 0.769v4.614h4.614a0.769,0.769 0,0 1,0.769 0.769ZM20,16.147h4.614v3.076L20,19.223a0.769,0.769 0,0 0,-0.769 0.769v4.614L16.15,24.606L16.15,19.992a0.769,0.769 0,0 0,-0.769 -0.769L10.767,19.223L10.767,16.147h4.614a0.769,0.769 0,0 0,0.769 -0.769L16.15,10.764h3.076v4.614a0.769,0.769 0,0 0,0.769 0.769ZM34.937,8.147a1.531,1.531 0,0 0,-1.1 -0.46L31.525,7.687v-2.5a1.546,1.546 0,0 0,-1.1 -1.475l-12.5,-3.678a0.8,0.8 0,0 0,-0.5 0.01L4.95,3.713a1.546,1.546 0,0 0,-1.1 1.475v2.5L1.539,7.688A1.533,1.533 0,0 0,0 9.249c0.064,3.485 1.205,21.1 17.413,26.074a0.758,0.758 0,0 0,0.269 0.049h0.006a0.758,0.758 0,0 0,0.269 -0.049c16.21,-4.969 17.35,-22.589 17.413,-26.074a1.522,1.522 0,0 0,-0.439 -1.1ZM17.941,32.09a0.768,0.768 0,0 1,-0.512 0C11.4,29.964 7.161,25.538 4.84,18.938a32.526,32.526 0,0 1,-1.609 -7.327A0.769,0.769 0,0 1,4 10.764L6.922,10.764L6.922,7.489a1.547,1.547 0,0 1,1.1 -1.476l9.442,-2.777a0.762,0.762 0,0 1,0.434 0l9.442,2.778a1.546,1.546 0,0 1,1.1 1.475v3.275h2.929a0.77,0.77 0,0 1,0.765 0.848c-0.5,4.822 -2.873,16.47 -14.2,20.478Z" fill="#8bc240"/>
</svg>
