<svg xmlns="http://www.w3.org/2000/svg" xmlns:android="http://schemas.android.com/apk/res/android" width="35.119dp" height="34.94dp" viewportWidth="35.119" viewportHeight="34.94">
	<path d="M15.33,3.717h0.9v0.9a0.429,0.429 0,1 0,0.858 0v-0.9h0.9a0.429,0.429 0,1 0,0 -0.858h-0.9v-0.9a0.429,0.429 0,1 0,-0.858 0v0.9h-0.9a0.429,0.429 0,0 0,0 0.858Z" fill="#8bc240"/>
	<path d="M34.336,5.8a0.429,0.429 0,1 0,0.523 0.307,0.429 0.429,0 0,0 -0.523,-0.307Z" fill="#8bc240"/>
	<path d="M34.676,7.478a0.429,0.429 0,1 0,0.014 0.858h0.014a0.429,0.429 0,1 0,-0.028 -0.858Z" fill="#8bc240"/>
	<path d="M34.639,9.19a0.429,0.429 0,0 0,-0.159 0.843,0.443 0.443,0 0,0 0.08,0.008 0.429,0.429 0,0 0,0.079 -0.851Z" fill="#8bc240"/>
	<path d="M33.463,12.383a0.429,0.429 0,1 0,0.171 0.28A0.429,0.429 0,0 0,33.463 12.383Z" fill="#8bc240"/>
	<path d="M34.229,10.852a0.429,0.429 0,1 0,0.224 0.564h0a0.428,0.428 0,0 0,-0.223 -0.564Z" fill="#8bc240"/>
	<path d="M34.227,4.783a0.462,0.462 0,0 0,0.025 -0.081,0.449 0.449,0 0,0 0,-0.167 0.433,0.433 0,0 0,-0.025 -0.08,0.389 0.389,0 0,0 -0.039,-0.074 0.43,0.43 0,0 0,-0.777 0.154,0.447 0.447,0 0,0 0,0.167 0.456,0.456 0,0 0,0.025 0.081,0.4 0.4,0 0,0 0.039,0.074 0.388,0.388 0,0 0,0.053 0.065,0.428 0.428,0 0,0 0.66,-0.065 0.4,0.4 0,0 0,0.039 -0.074Z" fill="#8bc240"/>
	<path d="M32.413,14.23h0a0.427,0.427 0,0 0,0.039 -0.073h0q0.007,-0.018 0.013,-0.036l0,0q0,-0.016 0.008,-0.032l0,-0.01c0,-0.009 0,-0.018 0,-0.028s0,-0.01 0,-0.015 0,-0.017 0,-0.025 0,-0.008 0,-0.012 0,0 0,-0.006 0,-0.017 0,-0.026 0,-0.01 0,-0.015 0,-0.021 0,-0.031v-0.008c0,-0.013 -0.006,-0.025 -0.01,-0.038h0a0.426,0.426 0,0 0,-0.053 -0.112v0l-0.022,-0.03 0,-0.006 -0.007,-0.009 -0.016,-0.016 0,0 0,0a0.428,0.428 0,0 0,-0.329 -0.123L32.021,13.579a0.428,0.428 0,0 0,-0.084 0.015l-0.008,0 -0.032,0.011 -0.006,0h0l-0.032,0.015 -0.005,0 -0.025,0.015 -0.009,0.005 0,0 -0.017,0.013 -0.018,0.014 -0.005,0a7.264,7.264 0,0 1,-5.3 1.8c-0.124,-0.008 -0.25,-0.02 -0.375,-0.034a1.008,1.008 0,0 0,-0.763 0.228l-1.859,1.563 0.124,-1.9a1,1 0,0 0,-0.479 -0.922,7.27 7.27,0 0,1 -3.483,-6.181c0,-0.207 0.006,-0.417 0.023,-0.624a7.326,7.326 0,0 1,7.837 -6.719,7.233 7.233,0 0,1 3.212,1.018 0.429,0.429 0,0 0,0.442 -0.736,8.084 8.084,0 0,0 -3.59,-1.138 8.186,8.186 0,0 0,-8.756 7.508c-0.018,0.231 -0.027,0.465 -0.025,0.7a8.123,8.123 0,0 0,3.892 6.906,0.149 0.149,0 0,1 0.073,0.136l-0.135,2.067a0.787,0.787 0,0 0,1.292 0.654l1.986,-1.67a0.147,0.147 0,0 1,0.111 -0.033c0.139,0.016 0.28,0.029 0.419,0.038a8.118,8.118 0,0 0,5.922 -2.011l0.016,-0.016 0,0 0,0 0.025,-0.027 0,0Q32.402,14.246 32.413,14.23Z" fill="#8bc240"/>
	<path d="M26.808,4.501a0.429,0.429 0,0 0,0.429 -0.429v-1.28a0.429,0.429 0,1 0,-0.858 0v1.28A0.429,0.429 0,0 0,26.808 4.501Z" fill="#8bc240"/>
	<path d="M26.379,12.38v1.28a0.429,0.429 0,1 0,0.858 0v-1.28a0.429,0.429 0,1 0,-0.858 0Z" fill="#8bc240"/>
	<path d="M32.245,7.795h-1.28a0.429,0.429 0,0 0,0 0.858h1.28a0.429,0.429 0,0 0,0 -0.858Z" fill="#8bc240"/>
	<path d="M20.943,8.224a0.429,0.429 0,0 0,0.429 0.429h1.28a0.429,0.429 0,1 0,0 -0.858h-1.28A0.429,0.429 0,0 0,20.943 8.224Z" fill="#8bc240"/>
	<path d="M29.441,10.857a0.429,0.429 0,0 0,0 0.607l0.905,0.905a0.429,0.429 0,0 0,0.607 -0.607l-0.905,-0.905A0.429,0.429 0,0 0,29.441 10.857Z" fill="#8bc240"/>
	<path d="M23.562,5.585a0.429,0.429 0,0 0,0.607 -0.607l-0.905,-0.905A0.429,0.429 0,1 0,22.662 4.685Z" fill="#8bc240"/>
	<path d="M22.967,12.495a0.428,0.428 0,0 0,0.3 -0.126l0.905,-0.905a0.429,0.429 0,0 0,-0.607 -0.607l-0.905,0.905a0.429,0.429 0,0 0,0.3 0.732Z" fill="#8bc240"/>
	<path d="M30.955,4.077a0.429,0.429 0,0 0,-0.607 0l-0.905,0.905a0.429,0.429 0,0 0,0.607 0.607L30.955,4.684a0.429,0.429 0,0 0,0 -0.607Z" fill="#8bc240"/>
	<path d="M28.643,8.575a0.429,0.429 0,0 0,-0.429 -0.429h-0.977v-2.23a0.429,0.429 0,1 0,-0.858 0v2.659a0.429,0.429 0,0 0,0.429 0.429h1.406A0.429,0.429 0,0 0,28.643 8.575Z" fill="#8bc240"/>
	<path d="M32.16,4.628a0.429,0.429 0,0 0,0.5 -0.34l0.214,-1.108 1.174,0.288a0.429,0.429 0,1 0,0.2 -0.833l-1.612,-0.4a0.429,0.429 0,0 0,-0.523 0.335l-0.3,1.551A0.429,0.429 0,0 0,32.16 4.628Z" fill="#8bc240"/>
	<path d="M23.536,26.288a0.9,0.9 0,0 0,-0.056 -0.567,52.36 52.36,0 0,1 -1.933,-5.6 3.559,3.559 0,0 0,-2.481 -2.6,2.634 2.634,0 0,0 0.156,-0.894c0,-0.073 0,-0.145 -0.01,-0.217L19.748,16.41a0.441,0.441 0,0 0,0.447 -0.416,0.429 0.429,0 0,0 -0.429,-0.442h-0.541L19.225,14.258A1.974,1.974 0,0 0,17.248 12.288L15.941,12.288a1.974,1.974 0,0 0,-1.974 1.974v1.283L13.448,15.545a0.441,0.441 0,0 0,-0.447 0.416,0.429 0.429,0 0,0 0.429,0.442h0.511c-0.006,0.072 -0.01,0.144 -0.01,0.217a2.636,2.636 0,0 0,0.134 0.829,3.35 3.35,0 0,0 -2.184,1.84 3.5,3.5 0,0 0,-0.285 1.078l-0.066,0.623a4.287,4.287 0,0 0,-1.948 -1.677,2.626 2.626,0 0,0 0.236,-0.92 1.724,1.724 0,0 0,-0.666 -3.245h0a1.728,1.728 0,0 0,-0.513 0.037,0.172 0.172,0 0,1 -0.165,-0.059 1.724,1.724 0,0 0,-2.592 0,0.172 0.172,0 0,1 -0.165,0.059 1.744,1.744 0,0 0,-0.7 -0.012,1.723 1.723,0 0,0 -0.478,3.221 2.627,2.627 0,0 0,0.2 0.827,3.716 3.716,0 0,0 -2.465,2.419 14.772,14.772 0,0 1,-1.738 4.027,0.9 0.9,0 0,0 -0.122,0.651 0.874,0.874 0,0 0,0.126 0.3,1.4 1.4,0 0,0 -0.531,1.1v0.446a0.441,0.441 0,0 0,0.416 0.447,0.429 0.429,0 0,0 0.442,-0.429v-0.464a0.546,0.546 0,0 1,0.984 -0.326,0.571 0.571,0 0,1 0.108,0.344v6.634a0.441,0.441 0,0 0,0.416 0.447,0.429 0.429,0 0,0 0.442,-0.429v-6.669a1.4,1.4 0,0 0,-0.043 -0.342,0.321 0.321,0 0,1 -0.047,-0.362 8.673,8.673 0,0 0,1.057 -3.542,0.322 0.322,0 0,1 0.322,-0.321h0a0.321,0.321 0,0 1,0.321 0.321,8.659 8.659,0 0,1 -0.847,3.256l-0.255,3.292a0.43,0.43 0,0 0,0.253 0.425,0.441 0.441,0 0,0 0.184,0.037h0.822l0.147,3.755a0.735,0.735 0,0 0,0.737 0.709h3.232a0.735,0.735 0,0 0,0.737 -0.709l0.147,-3.755h0.846a0.441,0.441 0,0 0,0.188 -0.038,0.43 0.43,0 0,0 0.248,-0.437l-0.165,-1.535a5.986,5.986 0,0 1,-0.868 -0.419,1.138 1.138,0 0,1 -0.489,-1.405 5.585,5.585 0,0 0,0.235 -3.094,0.322 0.322,0 1,1 0.622,-0.164 6.141,6.141 0,0 1,-0.257 3.49A0.5,0.5 0,0 0,10.148 27.488a4.446,4.446 0,0 0,1.288 0.524L13.178,28.012l-0.41,6.071a0.8,0.8 0,0 0,0.8 0.855h1.825a0.8,0.8 0,0 0,0.8 -0.752l0.062,-5.617a0.289,0.289 0,1 1,0.579 0l0.068,5.618a0.8,0.8 0,0 0,0.8 0.752h1.823a0.8,0.8 0,0 0,0.8 -0.859l-0.66,-8.993 0.06,0.161c0.3,0.823 0.6,1.486 0.791,1.9a0.9,0.9 0,0 0,1.057 0.481L21.573,34.488a0.441,0.441 0,0 0,0.416 0.447,0.429 0.429,0 0,0 0.442,-0.429L22.431,27.588a0.568,0.568 0,0 1,0.106 -0.339,0.546 0.546,0 0,1 0.986,0.323v0.446a0.441,0.441 0,0 0,0.416 0.447,0.429 0.429,0 0,0 0.442,-0.429v-0.464A1.409,1.409 0,0 0,23.536 26.288ZM6.645,34.088L5.574,34.088l-0.141,-3.605L6.648,30.483ZM8.574,34.088L7.503,34.088v-3.605h1.212ZM7.174,19.998A1.792,1.792 0,0 1,5.428 18.588a1.721,1.721 0,0 0,1.226 -0.609,0.141 0.141,0 0,1 0.139,-0.035 1.738,1.738 0,0 0,0.765 0,0.141 0.141,0 0,1 0.139,0.035 1.722,1.722 0,0 0,1.226 0.609A1.792,1.792 0,0 1,7.175 19.988ZM9.013,17.737a0.865,0.865 0,0 1,-0.662 -0.308,0.979 0.979,0 0,0 -0.752,-0.344 1.047,1.047 0,0 0,-0.233 0.026,0.876 0.876,0 0,1 -0.385,0 0.993,0.993 0,0 0,-0.985 0.318,0.866 0.866,0 1,1 -0.731,-1.422 0.877,0.877 0,0 1,0.259 0.018,1.029 1.029,0 0,0 1,-0.33 0.866,0.866 0,0 1,1.3 0,1.03 1.03,0 0,0 1,0.33 0.866,0.866 0,1 1,0.19 1.712ZM15.006,16.406L18.148,16.406a0.218,0.218 0,0 1,0.22 0.215v0a1.789,1.789 0,1 1,-3.578 0v0a0.218,0.218 0,0 1,0.22 -0.215ZM22.676,26.132 L21.347,26.803a0.045,0.045 0,0 1,-0.06 -0.02c-0.188,-0.395 -0.471,-1.031 -0.761,-1.828 -0.007,-0.018 -0.683,-1.806 -1.125,-3.274l0,-0.011c0,-0.009 -0.006,-0.019 -0.01,-0.028l-0.005,-0.012 -0.013,-0.027 -0.007,-0.012 -0.015,-0.024 -0.008,-0.012 -0.017,-0.022 -0.009,-0.01 -0.019,-0.021L19.286,21.488l-0.023,-0.021 -0.007,-0.005 -0.027,-0.02 0,0 -0.031,-0.019 0,0 -0.034,-0.016h0l-0.034,-0.013 -0.007,0 -0.032,-0.008 -0.012,0 -0.028,0 -0.02,0h-0.064l-0.025,0 -0.019,0 -0.017,0 -0.026,0.007h0l-0.01,0 -0.028,0.01 -0.014,0.006 -0.024,0.011 -0.017,0.01 -0.019,0.011 -0.018,0.013 -0.015,0.011 -0.018,0.016 -0.013,0.012 -0.016,0.017 -0.012,0.014 -0.013,0.017 -0.012,0.016 -0.011,0.016 -0.012,0.019 -0.008,0.016 -0.01,0.022 -0.006,0.016 -0.008,0.023 0,0.017c0,0.008 0,0.015 -0.006,0.023s0,0.014 0,0.021 0,0.013 0,0.02 0,0.017 0,0.025 0,0.011 0,0.016 0,0.019 0,0.029 0,0.008 0,0.012v0.007h0l0.109,1.486L14.355,23.325l0.1,-1.5a0.429,0.429 0,0 0,-0.856 -0.058l-0.363,5.385L11.824,27.152a10.286,10.286 0,0 0,0.371 -4.318L12.448,20.453a2.646,2.646 0,0 1,0.213 -0.814,2.55 2.55,0 0,1 1.816,-1.414 2.643,2.643 0,0 0,4.159 0.053h0a2.737,2.737 0,0 1,2.089 2.082,53.029 53.029,0 0,0 1.971,5.708A0.044,0.044 0,0 1,22.676 26.125Z" fill="#8bc240"/>
</svg>
