<svg xmlns="http://www.w3.org/2000/svg" xmlns:android="http://schemas.android.com/apk/res/android" width="35.021dp" height="35.545dp" viewportWidth="35.021" viewportHeight="35.545">
	<path d="M17.511,0A17.762,17.762 0,0 0,0 14.842,6.606 6.606,0 0,1 4.182,13.33a6.593,6.593 0,0 1,3.332 0.924,6.47 6.47,0 0,1 6.665,0 6.593,6.593 0,0 1,3.332 -0.924L17.511,29.991a5.554,5.554 0,1 0,11.108 0L28.619,28.881L26.397,28.881v1.111a3.332,3.332 0,1 1,-6.665 0L19.732,13.745a7.088,7.088 0,0 1,1.111 0.511,6.463 6.463,0 0,1 6.665,0 6.506,6.506 0,0 1,7.513 0.589A17.762,17.762 0,0 0,17.511 0Z" fill="#8bc240"/>
</svg>
