<svg xmlns="http://www.w3.org/2000/svg" xmlns:xlink="http://www.w3.org/1999/xlink" width="662.906" height="450.307" viewBox="0 0 662.906 450.307">
  <defs>
    <linearGradient id="linear-gradient" x1="0.269" y1="0.526" x2="0.831" y2="-0.136" gradientUnits="objectBoundingBox">
      <stop offset="0" stop-color="#fff"/>
      <stop offset="1" stop-color="#dbdbdb"/>
    </linearGradient>
    <linearGradient id="linear-gradient-2" x1="0.5" y1="0.886" x2="0.615" y2="-0.232" xlink:href="#linear-gradient"/>
    <linearGradient id="linear-gradient-3" x1="0.136" y1="0.787" x2="0.853" y2="0.072" xlink:href="#linear-gradient"/>
    <radialGradient id="radial-gradient" cx="0.981" cy="-0.012" r="1.229" gradientTransform="translate(0.003) scale(0.994 1)" gradientUnits="objectBoundingBox">
      <stop offset="0" stop-color="#8bc240"/>
      <stop offset="1" stop-color="#f48800"/>
    </radialGradient>
    <radialGradient id="radial-gradient-2" cx="-0.019" cy="-0.012" r="1.229" xlink:href="#radial-gradient"/>
    <radialGradient id="radial-gradient-3" cx="0.501" cy="0.008" r="1.072" gradientTransform="translate(-0.187) scale(1.373 1)" gradientUnits="objectBoundingBox">
      <stop offset="0" stop-color="#ffed42"/>
      <stop offset="0.276" stop-color="#ffe741"/>
      <stop offset="0.648" stop-color="#ffd640"/>
      <stop offset="1" stop-color="#ffbf3e"/>
    </radialGradient>
    <radialGradient id="radial-gradient-4" cx="0.501" cy="0.008" r="1.021" gradientTransform="translate(-0.209 0) scale(1.443 1.062)" gradientUnits="objectBoundingBox">
      <stop offset="0" stop-color="#ffc51a"/>
      <stop offset="0.276" stop-color="#febf19"/>
      <stop offset="0.648" stop-color="#fcae18"/>
      <stop offset="1" stop-color="#f99716"/>
    </radialGradient>
    <radialGradient id="radial-gradient-5" cx="-0.019" cy="-0.012" r="1.229" gradientTransform="translate(0.003) scale(0.994 1)" gradientUnits="objectBoundingBox">
      <stop offset="0" stop-color="#fff378"/>
      <stop offset="0.997" stop-color="#ffc14c"/>
    </radialGradient>
    <radialGradient id="radial-gradient-6" cx="1.018" cy="-0.012" r="1.229" gradientTransform="matrix(-0.995, 0, 0, 1, 5.222, 0)" xlink:href="#radial-gradient-5"/>
    <radialGradient id="radial-gradient-7" cx="0.501" cy="0.008" r="1.036" gradientTransform="translate(-0.781) scale(2.561 1)" xlink:href="#radial-gradient-4"/>
    <radialGradient id="radial-gradient-8" cx="0.499" cy="0.008" r="1.036" gradientTransform="matrix(-2.561, 0, 0, 1, 0.521, 0)" xlink:href="#radial-gradient-4"/>
  </defs>
  <g id="insur" transform="translate(-11.187 -5.479)">
    <circle id="Ellipse_2" data-name="Ellipse 2" cx="189.823" cy="189.823" r="189.823" transform="translate(204.098 5.479)" fill="#fff"/>
    <g id="Group_17" data-name="Group 17" transform="translate(11.187 66.612)">
      <path id="Path_22" data-name="Path 22" d="M109.816,59.126,11.187,157.753V367.538a166.071,166.071,0,0,0,46.967,9.685L313.7,121.681Z" transform="translate(-11.187 11.951)" fill="url(#linear-gradient)"/>
      <path id="Path_23" data-name="Path 23" d="M581.748,367.777,658.725,290.8l-50.738,17.335-108.94-7.265-101.673-88.6-50.538-177.9L12.991,368.216l200.76-.439Z" transform="translate(-8.545 -24.301)" fill="url(#linear-gradient-2)"/>
      <path id="Path_24" data-name="Path 24" d="M279.7,365.621,424.412,220.909,279.557,63.252l-98.629,98.627V365.621Z" transform="translate(237.388 17.993)" fill="url(#linear-gradient-3)"/>
      <g id="Group_15" data-name="Group 15" transform="translate(79.845 0)">
        <path id="Path_25" data-name="Path 25" d="M105.644,31.617l-31.806,31.8h36.777Z" transform="translate(0.716 -28.334)" fill="#d9d9d9"/>
        <g id="Group_10" data-name="Group 10" transform="translate(58.59)">
          <path id="Path_26" data-name="Path 26" d="M96.689,33.568c0-2.745-2.225-3.283-4.973-3.283s-4.973.537-4.973,3.283V91.785h9.944V33.568Z" transform="translate(-38.975 -30.285)" fill="#4e4e4e"/>
          <path id="Path_27" data-name="Path 27" d="M115.131,130.13a18.912,18.912,0,0,1-37.824,0,4.973,4.973,0,0,0-9.946,0,28.856,28.856,0,0,0,57.712,0V103.169h-9.944V130.13Z" transform="translate(-67.36 76.449)" fill="#4e4e4e"/>
        </g>
        <path id="Path_28" data-name="Path 28" d="M43.586,83.009v5.454c0,1.619,1.316,1.937,2.94,1.937s2.938-.318,2.938-1.937V83.009Z" transform="translate(-43.586 46.926)" fill="#4e4e4e"/>
        <path id="Path_29" data-name="Path 29" d="M71.218,83.009v5.454c0,1.619,1.316,1.937,2.94,1.937s2.94-.318,2.94-1.937V83.009Z" transform="translate(-3.121 46.926)" fill="#4e4e4e"/>
        <path id="Path_30" data-name="Path 30" d="M103.917,83.009v5.454c0,1.619,1.316,1.937,2.94,1.937s2.94-.318,2.94-1.937V83.009Z" transform="translate(44.765 46.926)" fill="#4e4e4e"/>
        <path id="Path_31" data-name="Path 31" d="M131.55,83.009v5.454c0,1.619,1.316,1.937,2.94,1.937s2.94-.318,2.94-1.937V83.009Z" transform="translate(85.232 46.926)" fill="#4e4e4e"/>
        <rect id="Rectangle_13" data-name="Rectangle 13" width="9.944" height="118.118" transform="translate(106.36 61.5)" fill="#a7aaa8"/>
        <path id="Path_32" data-name="Path 32" d="M86.744,101.689l9.944-9.944V80.155c-2.994-.431-6.427-.9-9.944-1.358Z" transform="translate(19.616 40.758)" fill="#bcbebd"/>
        <g id="Group_11" data-name="Group 11" transform="translate(0 22.912)">
          <path id="Path_33" data-name="Path 33" d="M114.609,150.28c.148-61.2,18.131-110.7,40.308-110.7a111.339,111.339,0,0,0-111.331,110.7c4.463-3.578,18.656-6.2,35.51-6.2S110.15,146.7,114.609,150.28Z" transform="translate(-43.586 -39.582)" fill="url(#radial-gradient)"/>
          <path id="Path_34" data-name="Path 34" d="M88.761,39.582c22.175,0,40.163,49.5,40.294,110.685,4.473-3.571,18.661-6.188,35.5-6.188,16.891,0,31.106,2.627,35.537,6.22A111.341,111.341,0,0,0,88.761,39.582Z" transform="translate(22.57 -39.582)" fill="url(#radial-gradient-2)"/>
          <path id="Path_35" data-name="Path 35" d="M72.412,150.267c5.077-3.573,21.187-6.188,40.294-6.188s35.219,2.615,40.294,6.188c-.131-61.189-18.119-110.685-40.294-110.685S72.54,89.078,72.412,150.267Z" transform="translate(-1.372 -39.582)" fill="url(#radial-gradient-3)"/>
        </g>
        <g id="Group_12" data-name="Group 12" transform="translate(73.413 22.909)">
          <path id="Path_36" data-name="Path 36" d="M111.293,144.08c16.746,0,31.187,2,37.92,4.912-.357-60.6-17.189-109.406-37.92-109.411S73.73,88.392,73.375,148.992C80.105,146.087,94.547,144.08,111.293,144.08Z" transform="translate(-73.375 -39.581)" fill="url(#radial-gradient-4)"/>
        </g>
        <g id="Group_13" data-name="Group 13" transform="translate(111.331 22.912)">
          <path id="Path_37" data-name="Path 37" d="M197.393,148.742a12.59,12.59,0,0,1,2.7,1.56A111.342,111.342,0,0,0,88.761,39.582C148.078,39.582,196.25,88.26,197.393,148.742Z" transform="translate(-88.761 -39.582)" fill="url(#radial-gradient-5)"/>
        </g>
        <g id="Group_14" data-name="Group 14" transform="translate(0 22.912)">
          <path id="Path_38" data-name="Path 38" d="M46.285,148.742a12.568,12.568,0,0,0-2.7,1.56A111.34,111.34,0,0,1,154.917,39.582C95.605,39.582,47.428,88.26,46.285,148.742Z" transform="translate(-43.586 -39.582)" fill="url(#radial-gradient-6)"/>
        </g>
        <path id="Path_39" data-name="Path 39" d="M71.221,148.628a13.111,13.111,0,0,1,2.918,1.651c.148-61.2,18.131-110.69,40.3-110.7C91.489,39.589,72.719,87.74,71.221,148.628Z" transform="translate(-3.116 -16.67)" opacity="0.31" fill="url(#radial-gradient-7)"/>
        <path id="Path_40" data-name="Path 40" d="M132.207,148.628a13.078,13.078,0,0,0-2.92,1.651c-.148-61.2-18.128-110.69-40.3-110.7C111.939,39.589,130.711,87.74,132.207,148.628Z" transform="translate(22.895 -16.67)" opacity="0.31" fill="url(#radial-gradient-8)"/>
      </g>
      <g id="Group_16" data-name="Group 16" transform="translate(79.845 22.912)">
        <path id="Path_41" data-name="Path 41" d="M154.917,39.582c-1.543,0-3.073.052-4.6.118L43.623,149.619c0,.219-.035.436-.037.658,1.774-1.42,5.1-2.689,9.51-3.7L156.654,39.626C156.073,39.619,155.5,39.582,154.917,39.582Z" transform="translate(-43.586 -39.582)" fill="#f5e2b4"/>
        <path id="Path_42" data-name="Path 42" d="M156.238,40.411,57.168,142.885c.678-.01,1.353-.02,2.038-.02,1.54,0,3.051.03,4.544.069L161.645,41.591Q158.965,40.937,156.238,40.411Z" transform="translate(-23.696 -38.368)" fill="#f5e2b4"/>
        <path id="Path_43" data-name="Path 43" d="M114.281,44.125,47.657,112.553q-1.586,4.647-2.77,9.468l78.48-80.806C120.284,42.068,117.25,43.024,114.281,44.125Z" transform="translate(-41.681 -37.191)" fill="#f5e2b4"/>
        <path id="Path_44" data-name="Path 44" d="M162.373,43.084l-94.489,98a53.839,53.839,0,0,1,5.387,1.368l93.752-97.286Q164.728,44.075,162.373,43.084Z" transform="translate(-8.003 -34.454)" fill="#f5e2b4"/>
        <path id="Path_45" data-name="Path 45" d="M163.81,47.179l-84.1,87.093c2.3-.3,4.749-.545,7.317-.747l80.767-83.547C166.487,49.02,165.161,48.079,163.81,47.179Z" transform="translate(9.314 -28.457)" fill="#f5e2b4"/>
        <path id="Path_46" data-name="Path 46" d="M162.36,52.473l-70.7,72.854c2.171.074,4.288.185,6.334.328l67.752-69.719C164.64,54.758,163.516,53.6,162.36,52.473Z" transform="translate(26.812 -20.704)" fill="#f5e2b4"/>
        <path id="Path_47" data-name="Path 47" d="M160.643,58.919l-58.622,60.046a36.074,36.074,0,0,1,5.121,1.659l56.263-57.552C162.516,61.664,161.6,60.284,160.643,58.919Z" transform="translate(41.988 -11.264)" fill="#f5e2b4"/>
        <path id="Path_48" data-name="Path 48" d="M152.808,66.508l-38.238,38.62c2.24-.182,4.586-.311,7-.389L154.8,71.326Q153.86,68.89,152.808,66.508Z" transform="translate(60.366 -0.151)" fill="#f5e2b4"/>
        <path id="Path_49" data-name="Path 49" d="M143.235,75.4,125.952,92.454c2.078.229,4.047.5,5.888.816l12.438-12.177Q143.83,78.228,143.235,75.4Z" transform="translate(77.034 12.878)" fill="#f5e2b4"/>
      </g>
    </g>
    <path id="Path_50" data-name="Path 50" d="M348,171.452H126.92a8.569,8.569,0,1,1,0-17.138H348a8.569,8.569,0,0,1,0,17.138Z" transform="translate(156.932 217.959)" fill="#a9acad"/>
    <g id="Group_47" data-name="Group 47" transform="translate(127.303 145.343)">
      <path id="Path_51" data-name="Path 51" d="M333.788,62.232H226.807L234.59,76V205.371H349.4V78.322A15.906,15.906,0,0,0,333.788,62.232Z" transform="translate(188.458 -62.232)" fill="#ececec"/>
      <path id="Path_52" data-name="Path 52" d="M346.829,203.274l-2.05-3.615V70.281H229.965V197.33a15.9,15.9,0,0,0,15.62,16.088H339.97A39.3,39.3,0,0,1,346.829,203.274Z" transform="translate(193.083 -50.445)" fill="#ececec"/>
      <g id="Group_18" data-name="Group 18" transform="translate(398.52)">
        <path id="Path_53" data-name="Path 53" d="M333.051,62.232H222.844L230.868,76V205.371H349.136V78.322A16.136,16.136,0,0,0,333.051,62.232Z" transform="translate(-215.865 -62.232)" fill="#fff"/>
        <path id="Path_54" data-name="Path 54" d="M235.015,86.308V69.72a7.5,7.5,0,0,0-15,0V86.308Z" transform="translate(-220.012 -62.231)" fill="#bbb"/>
      </g>
      <g id="Group_19" data-name="Group 19" transform="translate(413.523 19.836)">
        <path id="Path_55" data-name="Path 55" d="M242.185,213.418h110.2l-8.019-13.759V70.281H226.1V197.33A16.133,16.133,0,0,0,242.185,213.418Z" transform="translate(-226.1 -70.281)" fill="#fff"/>
        <path id="Path_56" data-name="Path 56" d="M274.09,118.593v16.591a7.5,7.5,0,0,0,15,0V118.593h-15Z" transform="translate(-155.822 0.469)" fill="#bbb"/>
      </g>
      <g id="Group_24" data-name="Group 24" transform="translate(0 86.026)">
        <g id="Group_21" data-name="Group 21" transform="translate(296.173)">
          <g id="Group_20" data-name="Group 20" transform="translate(135.047 88.173)">
            <path id="Path_57" data-name="Path 57" d="M249.473,152.307A6.932,6.932,0,0,1,253,143.194l21.938-9.69a6.909,6.909,0,0,1,5.587,12.638l-21.943,9.7A6.933,6.933,0,0,1,249.473,152.307Z" transform="translate(-210.427 -132.917)" fill="#e6a47b"/>
            <rect id="Rectangle_14" data-name="Rectangle 14" width="25.357" height="24.625" transform="translate(0 14.104)" fill="#fbc49d"/>
            <path id="Path_58" data-name="Path 58" d="M327.214,146.984a4.72,4.72,0,0,0,1.893-6.1c-3.731-7.832-11.009-5.035-18.841-1.306l-18.858,8.113S271.23,136.032,260.9,136.032c-20.482,0-21.608,8.443-22.325,14.917-.564,2.565,0,16.25,0,16.25,23.908.071,50.738.116,50.738.116Z" transform="translate(-225.901 -128.587)" fill="#fbc49d"/>
            <rect id="Rectangle_15" data-name="Rectangle 15" width="10.324" height="32.553" transform="translate(0.261 7.822)" fill="#fff"/>
          </g>
          <path id="Path_59" data-name="Path 59" d="M266.706,190.413l-44.624-69.608c-10.945-17.2-31.754-28.127-39.889-21.9s-1.267,27.215,4.963,35.345l49.819,78.381a32.1,32.1,0,0,0,27.1,14.893H315.6l.01-37.092Z" transform="translate(-178.483 -97.139)" fill="#4e4e4e"/>
        </g>
        <g id="Group_23" data-name="Group 23">
          <g id="Group_22" data-name="Group 22" transform="translate(0 88.173)">
            <path id="Path_60" data-name="Path 60" d="M105.42,152.307a6.932,6.932,0,0,0-3.529-9.113L79.95,133.5a6.907,6.907,0,1,0-5.579,12.638l21.938,9.7A6.932,6.932,0,0,0,105.42,152.307Z" transform="translate(-40.804 -132.917)" fill="#e6a47b"/>
            <rect id="Rectangle_16" data-name="Rectangle 16" width="25.354" height="24.625" transform="translate(78.308 14.104)" fill="#fbc49d"/>
            <path id="Path_61" data-name="Path 61" d="M60.655,146.984a4.719,4.719,0,0,1-1.9-6.1c3.734-7.832,11.009-5.035,18.841-1.306l18.855,8.113s20.181-11.654,30.515-11.654c20.482,0,21.608,8.443,22.328,14.917.564,2.565,0,16.25,0,16.25-23.91.071-50.74.116-50.74.116Z" transform="translate(-58.304 -128.587)" fill="#fbc49d"/>
            <rect id="Rectangle_17" data-name="Rectangle 17" width="10.321" height="32.553" transform="translate(93.082 7.822)" fill="#fff"/>
          </g>
          <path id="Path_62" data-name="Path 62" d="M148.421,190.413l44.621-69.608c10.949-17.2,31.757-28.127,39.887-21.9s1.272,27.215-4.958,35.345l-49.816,78.381a32.1,32.1,0,0,1-27.1,14.893H99.537l-.01-37.092Z" transform="translate(2.065 -97.139)" fill="#424242"/>
        </g>
      </g>
      <g id="Group_25" data-name="Group 25" transform="translate(426.023 22.18)">
        <path id="Path_63" data-name="Path 63" d="M321.442,76.905H234.011a2.837,2.837,0,1,1,0-5.673h87.431a2.837,2.837,0,0,1,0,5.673Z" transform="translate(-231.172 -71.232)" fill="#bbb"/>
        <path id="Path_64" data-name="Path 64" d="M321.442,83.755H234.011a2.838,2.838,0,1,1,0-5.676h87.431a2.838,2.838,0,0,1,0,5.676Z" transform="translate(-231.172 -61.205)" fill="#bbb"/>
        <path id="Path_65" data-name="Path 65" d="M321.442,90.6H234.011a2.837,2.837,0,1,1,0-5.673h87.431a2.837,2.837,0,0,1,0,5.673Z" transform="translate(-231.172 -51.177)" fill="#bbb"/>
        <path id="Path_66" data-name="Path 66" d="M321.442,97.445H234.011a2.837,2.837,0,1,1,0-5.673h87.431a2.837,2.837,0,0,1,0,5.673Z" transform="translate(-231.172 -41.152)" fill="#bbb"/>
        <path id="Path_67" data-name="Path 67" d="M267.9,104.292H234.011a2.837,2.837,0,1,1,0-5.673H267.9a2.837,2.837,0,1,1,0,5.673Z" transform="translate(-231.172 -31.125)" fill="#bbb"/>
        <path id="Path_68" data-name="Path 68" d="M267.9,111.14H234.011a2.837,2.837,0,1,1,0-5.673H267.9a2.837,2.837,0,1,1,0,5.673Z" transform="translate(-231.172 -21.097)" fill="#bbb"/>
      </g>
      <g id="Group_41" data-name="Group 41" transform="translate(201.853 61.345)">
        <g id="Group_40" data-name="Group 40">
          <g id="Group_39" data-name="Group 39">
            <rect id="Rectangle_18" data-name="Rectangle 18" width="52.946" height="145.355" transform="translate(39.116 36.311)" fill="#e8e8e8"/>
            <g id="Group_31" data-name="Group 31" transform="translate(24.354 16.874)">
              <g id="Group_30" data-name="Group 30">
                <g id="Group_26" data-name="Group 26" transform="translate(20.1 28.772)">
                  <path id="Path_69" data-name="Path 69" d="M200.663,225.757,185.539,116.511H173.372L158.248,225.757Z" transform="translate(-158.248 -89.735)" fill="#ca2e00"/>
                  <path id="Path_70" data-name="Path 70" d="M193.268,105.646H160.129l10.489,26.776h12.167Z" transform="translate(-155.493 -105.646)" fill="#b91f00"/>
                </g>
                <g id="Group_27" data-name="Group 27" transform="translate(0 0.365)">
                  <path id="Path_71" data-name="Path 71" d="M175.833,145.325l-25.741-33.5,3.99-1.395,11.884-16.312L191.4,122.677Z" transform="translate(-150.092 -94.119)" fill="#f2f2f2"/>
                </g>
                <g id="Group_28" data-name="Group 28" transform="translate(41.163 0.365)">
                  <path id="Path_72" data-name="Path 72" d="M182.355,145.325l25.743-33.5-3.99-1.395L192.228,94.119l-25.433,28.558Z" transform="translate(-166.795 -94.119)" fill="#f2f2f2"/>
                </g>
                <path id="Path_73" data-name="Path 73" d="M204.59,143.1l21.751-32.24L215.969,95.97a5.031,5.031,0,0,0-4.015-2H166.1a5.038,5.038,0,0,0-4.015,2l-10.373,14.888,21.751,32.24,15.452-20.2h.232Z" transform="translate(-147.721 -93.971)" fill="#fff"/>
                <g id="Group_29" data-name="Group 29" transform="translate(16.648 2.723)">
                  <path id="Path_74" data-name="Path 74" d="M205.179,95.076H157.835a.985.985,0,0,0-.7,1.681l24.371,24.371,24.371-24.371A.985.985,0,0,0,205.179,95.076Z" transform="translate(-156.847 -95.076)" fill="#adadad"/>
                </g>
              </g>
            </g>
            <g id="Group_33" data-name="Group 33" transform="translate(43.059)">
              <g id="Group_32" data-name="Group 32">
                <path id="Path_75" data-name="Path 75" d="M202.749,109.9l-22.537,23.025L157.682,109.9V87.124h45.067Z" transform="translate(-157.682 -87.124)" fill="#e6a47b"/>
              </g>
            </g>
            <g id="Group_34" data-name="Group 34" transform="translate(0 23.262)">
              <path id="Path_76" data-name="Path 76" d="M216.455,254.97V218.387L175.079,96.563a34.87,34.87,0,0,0-34.869,34.869V254.97Z" transform="translate(-140.21 -96.563)" fill="#4e4e4e"/>
            </g>
            <g id="Group_35" data-name="Group 35" transform="translate(54.577 23.262)">
              <path id="Path_77" data-name="Path 77" d="M238.956,254.97V131.432a34.871,34.871,0,0,0-34.867-34.869L162.356,218.387l.232,36.582Z" transform="translate(-162.356 -96.563)" fill="#666"/>
            </g>
            <g id="Group_37" data-name="Group 37" transform="translate(15.154 23.368)">
              <path id="Path_78" data-name="Path 78" d="M207.45,218.324,166.089,96.606l-17.643,16.965,8.342,8.347-10.43,11.467Z" transform="translate(-146.359 -96.606)" fill="#666"/>
              <g id="Group_36" data-name="Group 36" transform="translate(39.421)">
                <path id="Path_79" data-name="Path 79" d="M162.355,218.324,204.073,96.606l17.64,16.965-8.34,8.347L223.8,133.385Z" transform="translate(-162.355 -96.606)" fill="#4e4e4e"/>
              </g>
            </g>
            <g id="Group_38" data-name="Group 38" transform="translate(60.896 146.969)">
              <circle id="Ellipse_3" data-name="Ellipse 3" cx="4.692" cy="4.692" r="4.692" fill="#a3a3a3"/>
            </g>
          </g>
        </g>
      </g>
      <g id="Group_46" data-name="Group 46" transform="translate(465.813 84.929)">
        <g id="Group_45" data-name="Group 45" transform="translate(0 16.221)">
          <g id="Group_44" data-name="Group 44">
            <g id="Group_42" data-name="Group 42">
              <path id="Path_80" data-name="Path 80" d="M265.518,103.276l-12.788,33.77-5.412,14.289,11.487-6.79,4.106,12.689,5.409-14.286L281.1,109.181Z" transform="translate(-247.318 -103.276)" fill="#b91f00"/>
            </g>
            <g id="Group_43" data-name="Group 43" transform="translate(22.69)">
              <path id="Path_81" data-name="Path 81" d="M272.113,103.276l12.783,33.77,5.409,14.289-11.484-6.79-4.1,12.689-5.409-14.286-12.786-33.768Z" transform="translate(-256.525 -103.276)" fill="#b91f00"/>
            </g>
          </g>
        </g>
        <circle id="Ellipse_4" data-name="Ellipse 4" cx="20.829" cy="20.829" r="20.829" transform="translate(7.408)" fill="#ef3c39"/>
        <circle id="Ellipse_5" data-name="Ellipse 5" cx="11.704" cy="11.704" r="11.704" transform="translate(16.534 9.126)" fill="#b91f00"/>
      </g>
    </g>
    <path id="Path_82" data-name="Path 82" d="M202.749,101.083V95.624l-18.18-8.5H157.682v22.769l17.924,18.326Z" transform="translate(214.533 119.564)" fill="#f0e8eb"/>
    <g id="Group_48" data-name="Group 48" transform="translate(326.635 132.982)">
      <path id="Path_83" data-name="Path 83" d="M156.988,57.216a18.262,18.262,0,0,0,0,36.513Z" transform="translate(-139.187 -57.216)" fill="#e6a47b"/>
      <path id="Path_84" data-name="Path 84" d="M187.238,57.216a18.262,18.262,0,0,1,0,36.513Z" transform="translate(-68.819 -57.216)" fill="#e6a47b"/>
    </g>
    <path id="Path_85" data-name="Path 85" d="M144.792,41.313l4.971,88.616c0,17.838,14.079,28.294,22.628,34.214a21.438,21.438,0,0,0,12.231,3.921h28.947a20.827,20.827,0,0,0,11.773-3.615c8.495-5.789,23.075-16.366,23.075-34.519l4.973-88.616h-108.6Z" transform="translate(195.656 52.477)" fill="#ffbb8e"/>
    <path id="Path_86" data-name="Path 86" d="M220.83,41.313H170.295c-2.142,1.821-3.384,2.972-3.263,3.09v123.66H181.01a20.827,20.827,0,0,0,11.773-3.615c8.495-5.789,23.075-16.366,23.075-34.519Z" transform="translate(228.213 52.477)" fill="#ffcbab"/>
    <g id="Group_51" data-name="Group 51" transform="translate(360.203 131.399)">
      <g id="Group_49" data-name="Group 49">
        <circle id="Ellipse_6" data-name="Ellipse 6" cx="5.508" cy="5.508" r="5.508" transform="translate(2.105)" fill="#5c2f15"/>
        <circle id="Ellipse_7" data-name="Ellipse 7" cx="7.61" cy="7.61" r="7.61" transform="translate(0 24.031)" fill="#faa67a"/>
      </g>
      <g id="Group_50" data-name="Group 50" transform="translate(53.858)">
        <circle id="Ellipse_8" data-name="Ellipse 8" cx="5.508" cy="5.508" r="5.508" transform="translate(2.105)" fill="#5c2f15"/>
        <circle id="Ellipse_9" data-name="Ellipse 9" cx="7.61" cy="7.61" r="7.61" transform="translate(0 24.031)" fill="#faa67a"/>
      </g>
    </g>
    <path id="Path_87" data-name="Path 87" d="M171.867,103.885a8.179,8.179,0,0,1-8.155-8.155V66.724a8.155,8.155,0,0,1,16.31,0V95.73A8.18,8.18,0,0,1,171.867,103.885Z" transform="translate(223.363 77.747)" fill="#ffd3af"/>
    <path id="Path_88" data-name="Path 88" d="M172.154,29.021c43.46,0,51.041,25.034,53.143,33.514.057.237.091.382.126.52.091.38.168.734.232,1.06.066.345.1.54.1.54L223.4,120.92a37.813,37.813,0,0,1-3.847.037V73.107A12.148,12.148,0,0,0,207.4,60.96a152.846,152.846,0,0,1-41.814,4.865V40.577c0-.052,0-.1,0-.155h6.57v-11.4Z" transform="translate(226.1 34.476)" fill="#be7f3c"/>
    <path id="Path_89" data-name="Path 89" d="M205.387,29.021H197.3c-43.46,0-51.043,25.034-53.143,33.514-.059.237-.1.382-.128.52-.094.38-.17.734-.232,1.06-.067.345-.1.54-.1.54l2.354,56.266a37.851,37.851,0,0,0,3.849.037V73.107A12.145,12.145,0,0,1,162.042,60.96,152.018,152.018,0,0,0,197.3,65.808a72.547,72.547,0,0,0,9.4.052C234.531,64.487,233.255,29.021,205.387,29.021Z" transform="translate(194.052 34.476)" fill="#975837"/>
    <path id="Path_90" data-name="Path 90" d="M192.821,81.356H160.207a9.346,9.346,0,0,0,9.318,9.318H183.5A9.342,9.342,0,0,0,192.821,81.356Z" transform="translate(218.23 111.117)" fill="#faa67a"/>
    <path id="Path_91" data-name="Path 91" d="M168.15,25.447V71.091c18.141,0,26.335-10.9,26.335-23.018S182.823,26.085,168.15,25.447Z" transform="translate(229.862 29.242)" fill="#975837"/>
  </g>
</svg>
