<svg xmlns="http://www.w3.org/2000/svg" width="35.119" height="34.94" viewBox="0 0 35.119 34.94">
  <g id="Retirement_plan" data-name="Retirement plan" transform="translate(-13.552 -10.013)">
    <path id="Path_108" data-name="Path 108" d="M222.346,33.574h.9v.9a.429.429,0,1,0,.858,0v-.9h.9a.429.429,0,1,0,0-.858h-.9v-.9a.429.429,0,1,0-.858,0v.9h-.9a.429.429,0,0,0,0,.858Z" transform="translate(-193.464 -19.844)" fill="#cecece"/>
    <path id="Path_109" data-name="Path 109" d="M489.516,90.94a.429.429,0,1,0,.523.307.429.429,0,0,0-.523-.307Z" transform="translate(-441.628 -75.127)" fill="#cecece"/>
    <path id="Path_110" data-name="Path 110" d="M492.948,114.577a.429.429,0,1,0,.014.858h.014a.429.429,0,1,0-.028-.858Z" transform="translate(-444.72 -97.086)" fill="#cecece"/>
    <path id="Path_111" data-name="Path 111" d="M491.311,138.423a.429.429,0,0,0-.159.843.443.443,0,0,0,.08.008.429.429,0,0,0,.079-.851Z" transform="translate(-443.12 -119.22)" fill="#cecece"/>
    <path id="Path_112" data-name="Path 112" d="M472.617,182.095a.429.429,0,1,0,.171.28A.429.429,0,0,0,472.617,182.095Z" transform="translate(-425.602 -159.699)" fill="#cecece"/>
    <path id="Path_113" data-name="Path 113" d="M484.419,161.313a.429.429,0,1,0,.224.564h0a.428.428,0,0,0-.223-.564Z" transform="translate(-436.638 -140.448)" fill="#cecece"/>
    <path id="Path_114" data-name="Path 114" d="M481.456,69.184a.462.462,0,0,0,.025-.081.449.449,0,0,0,0-.167.433.433,0,0,0-.025-.08.389.389,0,0,0-.039-.074.43.43,0,0,0-.777.154.447.447,0,0,0,0,.167.456.456,0,0,0,.025.081.4.4,0,0,0,.039.074.388.388,0,0,0,.053.065.428.428,0,0,0,.66-.065.4.4,0,0,0,.039-.074Z" transform="translate(-433.677 -54.388)" fill="#cecece"/>
    <path id="Path_115" data-name="Path 115" d="M289.792,24.243h0a.427.427,0,0,0,.039-.073h0q.007-.018.013-.036l0,0q0-.016.008-.032l0-.01c0-.009,0-.018,0-.028s0-.01,0-.015,0-.017,0-.025,0-.008,0-.012,0,0,0-.006,0-.017,0-.026,0-.01,0-.015,0-.021,0-.031v-.008c0-.013-.006-.025-.01-.038h0a.426.426,0,0,0-.053-.112v0l-.022-.03,0-.006-.007-.009-.016-.016,0,0,0,0a.428.428,0,0,0-.329-.123H289.4a.428.428,0,0,0-.084.015l-.008,0-.032.011-.006,0h0l-.032.015-.005,0-.025.015-.009.005,0,0-.017.013-.018.014-.005,0a7.264,7.264,0,0,1-5.3,1.8c-.124-.008-.25-.02-.375-.034a1.008,1.008,0,0,0-.763.228l-1.859,1.563.124-1.9a1,1,0,0,0-.479-.922,7.27,7.27,0,0,1-3.483-6.181c0-.207.006-.417.023-.624a7.326,7.326,0,0,1,7.837-6.719,7.233,7.233,0,0,1,3.212,1.018.429.429,0,0,0,.442-.736,8.084,8.084,0,0,0-3.59-1.138,8.186,8.186,0,0,0-8.756,7.508c-.018.231-.027.465-.025.7a8.123,8.123,0,0,0,3.892,6.906.149.149,0,0,1,.073.136l-.135,2.067a.787.787,0,0,0,1.292.654l1.986-1.67a.147.147,0,0,1,.111-.033c.139.016.28.029.419.038a8.118,8.118,0,0,0,5.922-2.011l.016-.016,0,0,0,0,.025-.027,0,0Q289.781,24.259,289.792,24.243Z" transform="translate(-243.827)" fill="#cecece"/>
    <path id="Path_116" data-name="Path 116" d="M382.852,45.187a.429.429,0,0,0,.429-.429v-1.28a.429.429,0,1,0-.858,0v1.28A.429.429,0,0,0,382.852,45.187Z" transform="translate(-342.492 -30.673)" fill="#cecece"/>
    <path id="Path_117" data-name="Path 117" d="M382.423,177.555v1.28a.429.429,0,1,0,.858,0v-1.28a.429.429,0,1,0-.858,0Z" transform="translate(-342.492 -155.162)" fill="#cecece"/>
    <path id="Path_118" data-name="Path 118" d="M442.2,119.016h-1.28a.429.429,0,0,0,0,.858h1.28a.429.429,0,0,0,0-.858Z" transform="translate(-396.403 -101.208)" fill="#cecece"/>
    <path id="Path_119" data-name="Path 119" d="M306.41,119.445a.429.429,0,0,0,.429.429h1.28a.429.429,0,1,0,0-.858h-1.28A.429.429,0,0,0,306.41,119.445Z" transform="translate(-271.915 -101.208)" fill="#cecece"/>
    <path id="Path_120" data-name="Path 120" d="M423.606,160.2a.429.429,0,0,0,0,.607l.905.905a.429.429,0,0,0,.607-.607l-.905-.905A.429.429,0,0,0,423.606,160.2Z" transform="translate(-380.613 -139.33)" fill="#cecece"/>
    <path id="Path_121" data-name="Path 121" d="M329.7,66.9a.429.429,0,0,0,.607-.607l-.905-.905A.429.429,0,1,0,328.8,66Z" transform="translate(-292.586 -51.302)" fill="#cecece"/>
    <path id="Path_122" data-name="Path 122" d="M329.135,161.837a.428.428,0,0,0,.3-.126l.905-.905a.429.429,0,0,0-.607-.607l-.905.905a.429.429,0,0,0,.3.732Z" transform="translate(-292.616 -139.329)" fill="#cecece"/>
    <path id="Path_123" data-name="Path 123" d="M425.15,65.393a.429.429,0,0,0-.607,0l-.905.905a.429.429,0,0,0,.607.607L425.15,66a.429.429,0,0,0,0-.607Z" transform="translate(-380.643 -51.303)" fill="#cecece"/>
    <path id="Path_124" data-name="Path 124" d="M384.687,89.832a.429.429,0,0,0-.429-.429h-.977v-2.23a.429.429,0,1,0-.858,0v2.659a.429.429,0,0,0,.429.429h1.406A.429.429,0,0,0,384.687,89.832Z" transform="translate(-342.492 -71.244)" fill="#cecece"/>
    <path id="Path_125" data-name="Path 125" d="M458.737,43.558a.429.429,0,0,0,.5-.34l.214-1.108,1.174.288a.429.429,0,1,0,.2-.833l-1.612-.4a.429.429,0,0,0-.523.335l-.3,1.551A.429.429,0,0,0,458.737,43.558Z" transform="translate(-413.025 -28.917)" fill="#cecece"/>
    <path id="Path_126" data-name="Path 126" d="M37.088,195.8a.9.9,0,0,0-.056-.567,52.36,52.36,0,0,1-1.933-5.6,3.559,3.559,0,0,0-2.481-2.6,2.634,2.634,0,0,0,.156-.894c0-.073,0-.145-.01-.217H33.3a.441.441,0,0,0,.447-.416.429.429,0,0,0-.429-.442h-.541V183.77A1.974,1.974,0,0,0,30.8,181.8H29.493a1.974,1.974,0,0,0-1.974,1.974v1.283H27a.441.441,0,0,0-.447.416.429.429,0,0,0,.429.442h.511c-.006.072-.01.144-.01.217a2.636,2.636,0,0,0,.134.829,3.35,3.35,0,0,0-2.184,1.84,3.5,3.5,0,0,0-.285,1.078l-.066.623a4.287,4.287,0,0,0-1.948-1.677,2.626,2.626,0,0,0,.236-.92,1.724,1.724,0,0,0-.666-3.245h0a1.728,1.728,0,0,0-.513.037.172.172,0,0,1-.165-.059,1.724,1.724,0,0,0-2.592,0,.172.172,0,0,1-.165.059,1.744,1.744,0,0,0-.7-.012,1.723,1.723,0,0,0-.478,3.221,2.627,2.627,0,0,0,.2.827,3.716,3.716,0,0,0-2.465,2.419,14.772,14.772,0,0,1-1.738,4.027.9.9,0,0,0-.122.651.874.874,0,0,0,.126.3,1.4,1.4,0,0,0-.531,1.1v.446a.441.441,0,0,0,.416.447.429.429,0,0,0,.442-.429v-.464a.546.546,0,0,1,.984-.326.571.571,0,0,1,.108.344v6.634a.441.441,0,0,0,.416.447.429.429,0,0,0,.442-.429v-6.669a1.4,1.4,0,0,0-.043-.342.321.321,0,0,1-.047-.362,8.673,8.673,0,0,0,1.057-3.542.322.322,0,0,1,.322-.321h0a.321.321,0,0,1,.321.321,8.659,8.659,0,0,1-.847,3.256l-.255,3.292a.43.43,0,0,0,.253.425.441.441,0,0,0,.184.037h.822l.147,3.755a.735.735,0,0,0,.737.709h3.232a.735.735,0,0,0,.737-.709l.147-3.755h.846a.441.441,0,0,0,.188-.038.43.43,0,0,0,.248-.437l-.165-1.535a5.986,5.986,0,0,1-.868-.419,1.138,1.138,0,0,1-.489-1.405,5.585,5.585,0,0,0,.235-3.094.322.322,0,1,1,.622-.164,6.141,6.141,0,0,1-.257,3.49A.5.5,0,0,0,23.7,197a4.446,4.446,0,0,0,1.288.524H26.73l-.41,6.071a.8.8,0,0,0,.8.855h1.825a.8.8,0,0,0,.8-.752l.062-5.617a.289.289,0,1,1,.579,0l.068,5.618a.8.8,0,0,0,.8.752h1.823a.8.8,0,0,0,.8-.859l-.66-8.993.06.161c.3.823.6,1.486.791,1.9a.9.9,0,0,0,1.057.481V204a.441.441,0,0,0,.416.447.429.429,0,0,0,.442-.429V197.1a.568.568,0,0,1,.106-.339.546.546,0,0,1,.986.323v.446a.441.441,0,0,0,.416.447.429.429,0,0,0,.442-.429v-.464A1.409,1.409,0,0,0,37.088,195.8Zm-16.891,7.8H19.126l-.141-3.605H20.2Zm1.929,0H21.055v-3.605h1.212Zm-1.4-14.09A1.792,1.792,0,0,1,18.98,188.1a1.721,1.721,0,0,0,1.226-.609.141.141,0,0,1,.139-.035,1.738,1.738,0,0,0,.765,0,.141.141,0,0,1,.139.035,1.722,1.722,0,0,0,1.226.609A1.792,1.792,0,0,1,20.727,189.5Zm1.839-2.261a.865.865,0,0,1-.662-.308.979.979,0,0,0-.752-.344,1.047,1.047,0,0,0-.233.026.876.876,0,0,1-.385,0,.993.993,0,0,0-.985.318.866.866,0,1,1-.731-1.422.877.877,0,0,1,.259.018,1.029,1.029,0,0,0,1-.33.866.866,0,0,1,1.3,0,1.03,1.03,0,0,0,1,.33.866.866,0,1,1,.19,1.712Zm5.993-1.331H31.7a.218.218,0,0,1,.22.215v0a1.789,1.789,0,1,1-3.578,0v0a.218.218,0,0,1,.22-.215Zm7.67,9.726-1.329.671a.045.045,0,0,1-.06-.02c-.188-.395-.471-1.031-.761-1.828-.007-.018-.683-1.806-1.125-3.274l0-.011c0-.009-.006-.019-.01-.028l-.005-.012-.013-.027-.007-.012-.015-.024-.008-.012-.017-.022-.009-.01-.019-.021L32.838,191l-.023-.021-.007-.005-.027-.02,0,0-.031-.019,0,0-.034-.016h0l-.034-.013-.007,0-.032-.008-.012,0-.028,0-.02,0h-.064l-.025,0-.019,0-.017,0-.026.007h0l-.01,0-.028.01-.014.006-.024.011-.017.01-.019.011-.018.013-.015.011-.018.016-.013.012-.016.017-.012.014-.013.017-.012.016-.011.016-.012.019-.008.016-.01.022-.006.016-.008.023,0,.017c0,.008,0,.015-.006.023s0,.014,0,.021,0,.013,0,.02,0,.017,0,.025,0,.011,0,.016,0,.019,0,.029,0,.008,0,.012v.007h0l.109,1.486H27.907l.1-1.5a.429.429,0,0,0-.856-.058l-.363,5.385H25.376a10.286,10.286,0,0,0,.371-4.318L26,189.965a2.646,2.646,0,0,1,.213-.814,2.55,2.55,0,0,1,1.816-1.414,2.643,2.643,0,0,0,4.159.053h0a2.737,2.737,0,0,1,2.089,2.082,53.029,53.029,0,0,0,1.971,5.708A.044.044,0,0,1,36.228,195.637Z" transform="translate(0 -159.499)" fill="#cecece"/>
  </g>
</svg>
