<svg xmlns="http://www.w3.org/2000/svg" width="35.021" height="35.545" viewBox="0 0 35.021 35.545">
  <path id="Term_Ins" data-name="Term Ins" d="M17.629,0A17.762,17.762,0,0,0,.118,14.842,6.606,6.606,0,0,1,4.3,13.33a6.593,6.593,0,0,1,3.332.924,6.47,6.47,0,0,1,6.665,0,6.593,6.593,0,0,1,3.332-.924V29.991a5.554,5.554,0,1,0,11.108,0V28.881H26.515v1.111a3.332,3.332,0,1,1-6.665,0V13.745a7.088,7.088,0,0,1,1.111.511,6.463,6.463,0,0,1,6.665,0,6.506,6.506,0,0,1,7.513.589A17.762,17.762,0,0,0,17.629,0Z" transform="translate(-0.118)" fill="#cecece"/>
</svg>
